<svg width="157" height="36" viewBox="0 0 157 36" fill="none" xmlns="http://www.w3.org/2000/svg">
<path d="M2.346 5.58028L1.999 4.7004C1.923 4.5104 1.769 4.32044 1.538 4.24044L0.653999 3.8503C0.537999 3.8203 0.537999 3.62001 0.653999 3.55001L1.538 3.2004C1.73 3.1204 1.923 2.97044 1.999 2.74044L2.384 1.86007C2.422 1.74007 2.615 1.74007 2.692 1.86007L3.038 2.74044C3.115 2.93044 3.268 3.1204 3.499 3.2004L4.383 3.59005C4.499 3.62005 4.499 3.82034 4.383 3.89034L3.499 4.24044C3.307 4.32044 3.115 4.4704 3.038 4.7004L2.653 5.58028C2.576 5.70028 2.384 5.70028 2.346 5.58028ZM37.336 19.0002C36.798 28.5402 28.915 36.0002 19.38 36.0002C14.496 36.0002 9.92 34.0803 6.498 30.5803C3.076 27.0803 1.269 22.4703 1.384 17.5803C1.384 17.2003 1.423 16.8104 1.461 16.4304C1.461 16.3104 1.423 16.1603 1.307 16.0803C0.499999 15.4703 0 14.5104 0 13.4304C0 11.6204 1.423 10.2003 3.191 10.1203C3.23 10.1203 3.268 10.1203 3.345 10.1203C4.23 10.1203 5.037 10.47 5.614 11.05C6.268 11.66 6.652 12.5104 6.652 13.4704C6.652 14.9704 5.652 16.2704 4.268 16.6604C4.114 16.7004 3.999 16.8502 3.999 17.0002C3.999 17.2402 3.96 17.4304 3.96 17.6604C3.845 22.0804 5.57499 26.2302 8.80499 29.2702C11.42 31.7302 14.881 33.2301 18.457 33.4201C26.762 33.8901 33.799 27.7704 34.683 19.7404C34.722 19.5004 34.529 19.3103 34.299 19.3103H25.493C25.34 19.3103 25.186 19.4303 25.147 19.5803C24.455 22.1203 22.11 24.0002 19.38 24.0002C15.957 24.0002 13.15 21.0803 13.381 17.6203C13.573 14.6603 15.957 12.2802 18.88 12.0402C21.84 11.8102 24.417 13.7804 25.147 16.4304C25.186 16.5804 25.34 16.7004 25.532 16.7004H35.145C35.76 16.7004 36.337 16.9303 36.721 17.3903C37.183 17.8103 37.375 18.4302 37.336 19.0002ZM22.802 18.0002C22.802 16.1202 21.264 14.5803 19.38 14.5803C17.495 14.5803 15.957 16.1202 15.957 18.0002C15.957 19.8902 17.495 21.4304 19.38 21.4304C21.264 21.4304 22.802 19.8902 22.802 18.0002ZM2.576 13.4704C2.576 13.8904 2.922 14.2004 3.307 14.2004C3.691 14.2004 4.037 13.8504 4.037 13.4704C4.037 13.0804 3.691 12.7404 3.307 12.7404C2.922 12.7404 2.576 13.0404 2.576 13.4704ZM6.383 9.74044C6.268 9.93044 6.037 9.9703 5.845 9.8503C5.383 9.5503 4.845 9.31036 4.307 9.16036C4.037 9.12036 3.96 8.81028 4.076 8.58028C4.806 7.43028 5.652 6.3203 6.614 5.3503C9.882 2.0503 14.189 0.159968 18.803 0.00996793C23.648 -0.140032 28.262 1.59038 31.761 4.93038C32.607 5.74038 33.068 6.85001 32.991 8.05001C32.914 9.24001 32.376 10.31 31.415 11.05C29.838 12.24 27.608 12.1603 26.185 10.8103C25.762 10.4303 25.34 10.08 24.878 9.77999C24.724 9.69999 24.57 9.70026 24.417 9.81026C23.84 10.2803 23.109 10.5803 22.302 10.5803C20.764 10.5803 19.456 9.55032 19.11 8.12032C19.033 7.85032 18.995 7.54999 18.995 7.27999C18.995 6.65999 19.187 6.05001 19.495 5.55001C20.072 4.59001 21.148 3.93038 22.34 3.93038C24.109 3.93038 25.532 5.32001 25.647 7.05001C25.647 7.16001 25.724 7.2803 25.839 7.3503C26.608 7.8203 27.339 8.34997 27.993 9.00997C28.493 9.46997 29.3 9.51028 29.838 9.08028C30.184 8.81028 30.377 8.42997 30.415 8.00997C30.454 7.57997 30.261 7.20034 29.954 6.89034C26.954 4.05034 22.994 2.55036 18.841 2.66036C13.612 2.74036 9.036 5.58044 6.383 9.74044ZM23.109 7.2004C23.109 6.7804 22.763 6.47042 22.379 6.47042C21.994 6.47042 21.648 6.8204 21.648 7.2004C21.648 7.6204 21.994 7.97042 22.379 7.97042C22.763 7.97042 23.109 7.6204 23.109 7.2004ZM17.688 5.62032C17.957 5.58032 18.188 5.82028 18.111 6.08028C17.995 6.47028 17.957 6.8204 17.957 7.2004C17.957 7.3904 17.957 7.57999 17.995 7.77999C18.034 7.96999 17.88 8.1604 17.688 8.2004C15.611 8.5504 13.689 9.55032 12.189 11.1203C10.305 13.0803 9.30501 15.6603 9.42101 18.3903C9.61301 23.5003 13.804 27.6904 18.918 27.9304C21.071 28.0004 23.109 27.4303 24.84 26.3103C24.993 26.1903 25.032 26.0003 24.955 25.8103C24.763 25.3903 24.609 24.8903 24.609 24.3903C24.609 22.5003 26.185 20.9703 28.108 21.0803C29.8 21.1603 31.184 22.5402 31.261 24.2302C31.338 26.1602 29.838 27.7302 27.954 27.7302C27.8 27.7302 27.647 27.7301 27.493 27.6901C27.377 27.6901 27.262 27.6902 27.185 27.7702C24.84 29.6602 21.917 30.6602 18.764 30.5002C12.304 30.2302 7.075 24.9602 6.806 18.5002C6.691 15.0802 7.92099 11.8103 10.305 9.31026C12.343 7.28026 14.919 5.97032 17.688 5.62032ZM27.224 24.3903C27.224 24.8103 27.57 25.1203 27.954 25.1203C28.339 25.1203 28.685 24.7703 28.685 24.3903C28.685 24.0003 28.339 23.6604 27.954 23.6604C27.57 23.6604 27.224 23.9603 27.224 24.3903Z" fill="url(#paint0_linear_1_11)"/>
<path d="M54.757 24.6802C53.641 24.6802 52.669 24.4901 51.841 24.1001C51.013 23.7201 50.323 23.2001 49.771 22.5601C49.231 21.9001 48.823 21.1599 48.547 20.3599C48.283 19.5399 48.151 18.7099 48.151 17.8599C48.151 17.0099 48.283 16.1699 48.547 15.3599C48.823 14.5399 49.237 13.8102 49.789 13.1602C50.341 12.5002 51.037 11.9798 51.877 11.5898C52.717 11.1998 53.695 11 54.811 11C55.687 11 56.437 11.1098 57.061 11.3398C57.697 11.5598 58.225 11.8399 58.645 12.1899C59.077 12.5399 59.419 12.9098 59.671 13.2998C59.935 13.6898 60.133 14.0499 60.265 14.3999C60.397 14.7499 60.487 15.04 60.535 15.27C60.583 15.48 60.607 15.5898 60.607 15.5898H58.159C58.159 15.5898 58.135 15.5099 58.087 15.3599C58.051 15.1899 57.967 14.9802 57.835 14.7402C57.703 14.5002 57.511 14.26 57.259 14.02C57.019 13.78 56.701 13.5902 56.305 13.4302C55.909 13.2602 55.417 13.1802 54.829 13.1802C54.121 13.1802 53.503 13.3098 52.975 13.5698C52.459 13.8398 52.027 14.1901 51.679 14.6401C51.331 15.0801 51.073 15.5799 50.905 16.1299C50.737 16.6799 50.653 17.2498 50.653 17.8198C50.653 18.5998 50.809 19.3498 51.121 20.0698C51.433 20.7898 51.895 21.3798 52.507 21.8398C53.131 22.2898 53.899 22.52 54.811 22.52C55.867 22.52 56.701 22.2302 57.313 21.6602C57.937 21.0802 58.291 20.3101 58.375 19.3501H54.739V17.4102H60.751V18.3999C60.751 19.7799 60.487 20.9401 59.959 21.8701C59.431 22.8001 58.711 23.5 57.799 23.98C56.899 24.45 55.885 24.6802 54.757 24.6802ZM62.643 24.5V14.96H65.019V16.27H65.109C65.277 15.9 65.553 15.56 65.937 15.25C66.321 14.94 66.897 14.7798 67.665 14.7798C67.905 14.7798 68.103 14.8001 68.259 14.8301C68.415 14.8601 68.493 14.8701 68.493 14.8701V17.1899C68.493 17.1899 68.403 17.1802 68.223 17.1602C68.055 17.1302 67.845 17.1201 67.593 17.1201C66.753 17.1201 66.117 17.3498 65.685 17.8198C65.253 18.2898 65.037 19.0498 65.037 20.0898V24.5H62.643ZM74.373 24.6802C73.329 24.6802 72.441 24.45 71.709 23.98C70.977 23.51 70.419 22.9002 70.035 22.1602C69.663 21.4002 69.477 20.59 69.477 19.73C69.477 18.87 69.663 18.0598 70.035 17.3198C70.419 16.5598 70.977 15.95 71.709 15.48C72.441 15.01 73.329 14.7798 74.373 14.7798C75.429 14.7798 76.317 15.01 77.037 15.48C77.769 15.95 78.321 16.5598 78.693 17.3198C79.077 18.0598 79.269 18.87 79.269 19.73C79.269 20.59 79.077 21.4002 78.693 22.1602C78.321 22.9002 77.769 23.51 77.037 23.98C76.317 24.45 75.429 24.6802 74.373 24.6802ZM74.373 22.6802C74.913 22.6802 75.363 22.54 75.723 22.27C76.095 21.99 76.377 21.6299 76.569 21.1899C76.761 20.7299 76.857 20.25 76.857 19.73C76.857 19.2 76.761 18.72 76.569 18.27C76.377 17.83 76.095 17.4699 75.723 17.1899C75.363 16.9199 74.913 16.7798 74.373 16.7798C73.845 16.7798 73.395 16.9199 73.023 17.1899C72.651 17.4699 72.369 17.83 72.177 18.27C71.985 18.72 71.889 19.2 71.889 19.73C71.889 20.25 71.985 20.7299 72.177 21.1899C72.369 21.6299 72.651 21.99 73.023 22.27C73.395 22.54 73.845 22.6802 74.373 22.6802ZM84.387 24.6802C83.391 24.6802 82.635 24.3698 82.119 23.7598C81.615 23.1498 81.363 22.3599 81.363 21.3999V14.96H83.739V21.0098C83.739 21.5198 83.877 21.94 84.153 22.25C84.429 22.55 84.819 22.7002 85.323 22.7002C85.767 22.7002 86.127 22.5899 86.403 22.3599C86.679 22.1299 86.877 21.84 86.997 21.48C87.129 21.12 87.195 20.7399 87.195 20.3599V14.96H89.589V24.5H87.195V23.1299H87.087C86.967 23.3499 86.793 23.5798 86.565 23.8198C86.349 24.0598 86.061 24.2602 85.701 24.4302C85.353 24.6002 84.915 24.6802 84.387 24.6802ZM91.822 24.5V14.96H94.216V16.3301H94.324C94.42 16.1601 94.57 15.9602 94.774 15.7202C94.978 15.4602 95.26 15.2498 95.62 15.0698C95.98 14.8798 96.436 14.7798 96.988 14.7798C97.72 14.7798 98.32 14.9498 98.788 15.2798C99.268 15.6098 99.622 16.0401 99.85 16.5801C100.09 17.1201 100.21 17.7001 100.21 18.3301V24.5H97.816V18.6499C97.816 18.1299 97.672 17.6898 97.384 17.3198C97.096 16.9498 96.664 16.7598 96.088 16.7598C95.644 16.7598 95.284 16.8701 95.008 17.1001C94.732 17.3201 94.528 17.6002 94.396 17.9502C94.276 18.3002 94.216 18.6598 94.216 19.0498V24.5H91.822ZM106.455 24.6802C105.747 24.6802 105.129 24.54 104.601 24.27C104.073 23.98 103.629 23.5999 103.269 23.1299C102.921 22.6499 102.657 22.1198 102.477 21.5298C102.309 20.9398 102.225 20.34 102.225 19.73C102.225 19.12 102.309 18.5202 102.477 17.9302C102.657 17.3402 102.921 16.8101 103.269 16.3501C103.629 15.8701 104.073 15.49 104.601 15.21C105.129 14.92 105.747 14.7798 106.455 14.7798C107.067 14.7798 107.571 14.8798 107.967 15.0898C108.363 15.2798 108.675 15.49 108.903 15.73C109.131 15.96 109.287 16.15 109.371 16.29H109.479V10.8198H111.873V24.5H109.479V23.1699H109.371C109.287 23.3099 109.131 23.5002 108.903 23.7402C108.675 23.9802 108.363 24.2001 107.967 24.3901C107.571 24.5801 107.067 24.6802 106.455 24.6802ZM107.085 22.7202C107.625 22.7202 108.075 22.57 108.435 22.29C108.795 21.99 109.065 21.6099 109.245 21.1499C109.425 20.6999 109.515 20.22 109.515 19.73C109.515 19.24 109.425 18.7601 109.245 18.3101C109.065 17.8501 108.795 17.4799 108.435 17.1899C108.075 16.8899 107.625 16.7402 107.085 16.7402C106.545 16.7402 106.089 16.8899 105.717 17.1899C105.357 17.4799 105.087 17.8501 104.907 18.3101C104.727 18.7601 104.637 19.24 104.637 19.73C104.637 20.22 104.727 20.6999 104.907 21.1499C105.087 21.6099 105.357 21.99 105.717 22.29C106.089 22.57 106.545 22.7202 107.085 22.7202ZM114.467 24.5V11.1802H119.255C120.335 11.1802 121.277 11.3698 122.081 11.7598C122.897 12.1298 123.575 12.63 124.115 13.27C124.655 13.9 125.057 14.6202 125.321 15.4102C125.597 16.2002 125.735 17.0098 125.735 17.8398C125.735 18.6698 125.597 19.48 125.321 20.27C125.057 21.06 124.655 21.7802 124.115 22.4102C123.575 23.0502 122.897 23.5599 122.081 23.9399C121.277 24.3099 120.335 24.5 119.255 24.5H114.467ZM119.147 13.3198H116.915V22.3398H119.147C120.083 22.3398 120.857 22.1199 121.469 21.6899C122.081 21.2499 122.537 20.68 122.837 20C123.137 19.3 123.287 18.5798 123.287 17.8198C123.287 17.0798 123.137 16.3602 122.837 15.6802C122.537 14.9802 122.081 14.4202 121.469 13.9902C120.857 13.5402 120.083 13.3198 119.147 13.3198ZM132.272 24.6802C131.456 24.6802 130.748 24.54 130.148 24.27C129.56 23.98 129.068 23.5999 128.672 23.1299C128.288 22.6499 128 22.1198 127.808 21.5298C127.616 20.9398 127.52 20.34 127.52 19.73C127.52 19.12 127.61 18.5202 127.79 17.9502C127.982 17.3602 128.264 16.8301 128.636 16.3501C129.02 15.8701 129.506 15.49 130.094 15.21C130.682 14.92 131.378 14.7798 132.182 14.7798C133.046 14.7798 133.808 14.9699 134.468 15.3599C135.128 15.7399 135.644 16.2998 136.016 17.0498C136.388 17.7798 136.574 18.6898 136.574 19.7798V20.3999H129.932C129.968 21.0399 130.19 21.6098 130.598 22.0898C131.006 22.5598 131.564 22.79 132.272 22.79C132.68 22.79 133.016 22.7198 133.28 22.5898C133.544 22.4598 133.748 22.3101 133.892 22.1401C134.036 21.9601 134.138 21.8099 134.198 21.6899C134.258 21.5599 134.288 21.4902 134.288 21.4902H136.502C136.502 21.4902 136.472 21.5998 136.412 21.8198C136.352 22.0198 136.238 22.2899 136.07 22.6099C135.914 22.9199 135.68 23.2401 135.368 23.5601C135.056 23.8801 134.648 24.1399 134.144 24.3599C133.64 24.5699 133.016 24.6802 132.272 24.6802ZM129.932 18.8301H134.27C134.234 18.0901 134.012 17.5299 133.604 17.1699C133.196 16.8099 132.716 16.6299 132.164 16.6299C131.552 16.6299 131.042 16.83 130.634 17.23C130.226 17.61 129.992 18.1501 129.932 18.8301ZM142.52 24.6802C141.74 24.6802 141.098 24.5801 140.594 24.3701C140.09 24.1601 139.688 23.8901 139.388 23.5801C139.1 23.2601 138.884 22.9399 138.74 22.6299C138.596 22.3199 138.5 22.0601 138.452 21.8501C138.416 21.6401 138.398 21.5298 138.398 21.5298H140.666C140.666 21.5298 140.684 21.6 140.72 21.73C140.768 21.86 140.852 22.0202 140.972 22.2002C141.104 22.3602 141.302 22.5099 141.566 22.6499C141.83 22.7799 142.178 22.8398 142.61 22.8398C143.126 22.8398 143.498 22.74 143.726 22.52C143.954 22.29 144.068 22.0398 144.068 21.7598C144.068 21.4998 143.966 21.2899 143.762 21.1299C143.57 20.9699 143.282 20.8398 142.898 20.7598L141.584 20.4902C141.056 20.3802 140.564 20.22 140.108 20.02C139.652 19.8 139.28 19.5099 138.992 19.1499C138.704 18.7799 138.56 18.31 138.56 17.73C138.56 16.88 138.884 16.1799 139.532 15.6299C140.18 15.0599 141.062 14.7798 142.178 14.7798C142.886 14.7798 143.468 14.8798 143.924 15.0698C144.392 15.2598 144.764 15.5 145.04 15.79C145.328 16.08 145.538 16.3599 145.67 16.6499C145.814 16.9399 145.904 17.1901 145.94 17.3901C145.988 17.5801 146.012 17.6802 146.012 17.6802H143.816C143.816 17.6802 143.798 17.62 143.762 17.52C143.726 17.4 143.648 17.2601 143.528 17.1201C143.42 16.9801 143.252 16.8502 143.024 16.7402C142.808 16.6202 142.514 16.5601 142.142 16.5601C141.638 16.5601 141.278 16.6701 141.062 16.8901C140.858 17.1001 140.756 17.3298 140.756 17.5698C140.756 17.8298 140.87 18.0402 141.098 18.1802C141.326 18.3302 141.62 18.4298 141.98 18.5098L143.222 18.7798C144.11 18.9598 144.836 19.27 145.4 19.71C145.976 20.16 146.264 20.8001 146.264 21.6401C146.264 22.2001 146.114 22.7199 145.814 23.1899C145.526 23.6399 145.1 24.0098 144.536 24.2798C143.984 24.5498 143.312 24.6802 142.52 24.6802ZM148.27 24.5V10.8198H150.664V18.7402L154.03 14.96H156.856L152.896 19.3198L156.982 24.5H154.12L150.664 20.1099V24.5H148.27Z" fill="#0C0047"/>
<defs>
<linearGradient id="paint0_linear_1_11" x1="18.671" y1="-3.01636e-05" x2="18.671" y2="36.0002" gradientUnits="userSpaceOnUse">
<stop stop-color="#0C0047"/>
<stop offset="1" stop-color="#0B0239"/>
</linearGradient>
</defs>
</svg>
