<svg width="157" height="36" viewBox="0 0 157 36" fill="none" xmlns="http://www.w3.org/2000/svg">
<path d="M2.346 5.58493L1.999 4.70054C1.923 4.50834 1.769 4.31604 1.538 4.23914L0.653999 3.85463C0.537999 3.81613 0.537999 3.62394 0.653999 3.54704L1.538 3.20094C1.73 3.12404 1.923 2.97023 1.999 2.73953L2.384 1.85513C2.422 1.73973 2.615 1.73973 2.692 1.85513L3.038 2.73953C3.115 2.93173 3.268 3.12404 3.499 3.20094L4.383 3.58543C4.499 3.62393 4.499 3.81614 4.383 3.89304L3.499 4.23914C3.307 4.31604 3.115 4.46984 3.038 4.70054L2.653 5.58493C2.576 5.70023 2.384 5.70023 2.346 5.58493ZM37.336 19.0045C36.798 28.5404 28.915 36 19.38 36C14.496 36 9.92 34.0774 6.498 30.5783C3.076 27.0793 1.269 22.4651 1.384 17.5818C1.384 17.1972 1.423 16.8127 1.461 16.4282C1.461 16.3129 1.423 16.159 1.307 16.0821C0.499999 15.4669 0 14.5056 0 13.429C0 11.6218 1.423 10.1991 3.191 10.1222C3.23 10.1222 3.268 10.1222 3.345 10.1222C4.23 10.1222 5.037 10.4682 5.614 11.045C6.268 11.6602 6.652 12.5062 6.652 13.4674C6.652 14.967 5.652 16.2744 4.268 16.6589C4.114 16.6974 3.999 16.8512 3.999 17.005C3.999 17.2357 3.96 17.4279 3.96 17.6587C3.845 22.0806 5.575 26.2333 8.805 29.271C11.42 31.7319 14.881 33.2315 18.457 33.4238C26.762 33.8852 33.799 27.7714 34.683 19.735C34.722 19.5043 34.529 19.3121 34.299 19.3121H25.493C25.34 19.3121 25.186 19.4274 25.147 19.5812C24.455 22.119 22.11 24.0031 19.38 24.0031C15.957 24.0031 13.15 21.0808 13.381 17.6202C13.573 14.6594 15.957 12.2754 18.88 12.0447C21.84 11.814 24.417 13.7751 25.147 16.4282C25.186 16.582 25.34 16.6974 25.532 16.6974H35.145C35.76 16.6974 36.337 16.9281 36.721 17.3895C37.183 17.8125 37.375 18.4277 37.336 19.0045ZM22.802 18.0047C22.802 16.1206 21.264 14.5825 19.38 14.5825C17.495 14.5825 15.957 16.1206 15.957 18.0047C15.957 19.8888 17.495 21.4269 19.38 21.4269C21.264 21.4269 22.802 19.8888 22.802 18.0047ZM2.576 13.4674C2.576 13.8904 2.922 14.198 3.307 14.198C3.691 14.198 4.037 13.852 4.037 13.4674C4.037 13.0829 3.691 12.7369 3.307 12.7369C2.922 12.7369 2.576 13.0445 2.576 13.4674ZM6.383 9.73774C6.268 9.92994 6.037 9.96844 5.845 9.85304C5.383 9.54544 4.845 9.31474 4.307 9.16094C4.037 9.12244 3.96 8.81483 4.076 8.58413C4.806 7.43063 5.652 6.31553 6.614 5.35423C9.882 2.04743 14.189 0.163234 18.803 0.00943446C23.648 -0.144366 28.262 1.58593 31.761 4.93123C32.607 5.73873 33.068 6.85383 32.991 8.04583C32.914 9.23783 32.376 10.3144 31.415 11.045C29.838 12.237 27.608 12.1601 26.185 10.8143C25.762 10.4298 25.34 10.0837 24.878 9.77614C24.724 9.69924 24.57 9.69924 24.417 9.81464C23.84 10.276 23.109 10.5836 22.302 10.5836C20.764 10.5836 19.456 9.54544 19.11 8.12274C19.033 7.85354 18.995 7.54593 18.995 7.27683C18.995 6.66153 19.187 6.04633 19.495 5.54643C20.072 4.58523 21.148 3.93153 22.34 3.93153C24.109 3.93153 25.532 5.31574 25.647 7.04614C25.647 7.16144 25.724 7.27683 25.839 7.35373C26.608 7.81513 27.339 8.35343 27.993 9.00713C28.493 9.46853 29.3 9.50693 29.838 9.08403C30.184 8.81483 30.377 8.43034 30.415 8.00734C30.454 7.58444 30.261 7.19994 29.954 6.89224C26.954 4.04684 22.994 2.54724 18.841 2.66264C13.612 2.73954 9.036 5.58494 6.383 9.73774ZM23.109 7.19994C23.109 6.77694 22.763 6.46933 22.379 6.46933C21.994 6.46933 21.648 6.81534 21.648 7.19994C21.648 7.62284 21.994 7.96893 22.379 7.96893C22.763 7.96893 23.109 7.62284 23.109 7.19994ZM17.688 5.62333C17.957 5.58493 18.188 5.81564 18.111 6.08484C17.995 6.46934 17.957 6.81534 17.957 7.19994C17.957 7.39214 17.957 7.58443 17.995 7.77663C18.034 7.96893 17.88 8.16114 17.688 8.19964C15.611 8.54574 13.689 9.54543 12.189 11.1219C10.305 13.0829 9.305 15.6592 9.421 18.3892C9.613 23.5033 13.804 27.6945 18.918 27.9252C21.071 28.0021 23.109 27.4253 24.84 26.3102C24.993 26.1949 25.032 26.0026 24.955 25.8104C24.763 25.3874 24.609 24.8875 24.609 24.3877C24.609 22.5035 26.185 20.9655 28.108 21.0808C29.8 21.1577 31.184 22.542 31.261 24.2339C31.338 26.1564 29.838 27.7329 27.954 27.7329C27.8 27.7329 27.647 27.7329 27.493 27.6945C27.377 27.6945 27.262 27.6945 27.185 27.7714C24.84 29.6555 21.917 30.6552 18.764 30.5014C12.304 30.2323 7.075 24.9644 6.806 18.5046C6.691 15.0824 7.921 11.814 10.305 9.31474C12.343 7.27684 14.919 5.96943 17.688 5.62333ZM27.224 24.3877C27.224 24.8106 27.57 25.1182 27.954 25.1182C28.339 25.1182 28.685 24.7722 28.685 24.3877C28.685 24.0031 28.339 23.6571 27.954 23.6571C27.57 23.6571 27.224 23.9647 27.224 24.3877Z" fill="url(#paint0_linear_1_614)"/>
<path d="M54.757 24.6801C53.641 24.6801 52.669 24.4881 51.841 24.1041C51.013 23.7201 50.323 23.2041 49.771 22.5561C49.231 21.8961 48.823 21.1641 48.547 20.3601C48.283 19.5441 48.151 18.7101 48.151 17.8581C48.151 17.0061 48.283 16.1721 48.547 15.3561C48.823 14.5401 49.237 13.8081 49.789 13.1601C50.341 12.5001 51.037 11.9781 51.877 11.5941C52.717 11.1981 53.695 11.0001 54.811 11.0001C55.687 11.0001 56.437 11.1141 57.061 11.3421C57.697 11.5581 58.225 11.8401 58.645 12.1881C59.077 12.5361 59.419 12.9081 59.671 13.3041C59.935 13.6881 60.133 14.0541 60.265 14.4021C60.397 14.7501 60.487 15.0381 60.535 15.2661C60.583 15.4821 60.607 15.5901 60.607 15.5901H58.159C58.159 15.5901 58.135 15.5121 58.087 15.3561C58.051 15.1881 57.967 14.9841 57.835 14.7441C57.703 14.5041 57.511 14.2641 57.259 14.0241C57.019 13.7841 56.701 13.5861 56.305 13.4301C55.909 13.2621 55.417 13.1781 54.829 13.1781C54.121 13.1781 53.503 13.3101 52.975 13.5741C52.459 13.8381 52.027 14.1921 51.679 14.6361C51.331 15.0801 51.073 15.5781 50.905 16.1301C50.737 16.6821 50.653 17.2461 50.653 17.8221C50.653 18.6021 50.809 19.3521 51.121 20.0721C51.433 20.7921 51.895 21.3801 52.507 21.8361C53.131 22.2921 53.899 22.5201 54.811 22.5201C55.867 22.5201 56.701 22.2321 57.313 21.6561C57.937 21.0801 58.291 20.3121 58.375 19.3521H54.739V17.4081H60.751V18.3981C60.751 19.7781 60.487 20.9361 59.959 21.8721C59.431 22.7961 58.711 23.4981 57.799 23.9781C56.899 24.4461 55.885 24.6801 54.757 24.6801ZM62.643 24.5001V14.9601H65.019V16.2741H65.109C65.277 15.9021 65.553 15.5601 65.937 15.2481C66.321 14.9361 66.897 14.7801 67.665 14.7801C67.905 14.7801 68.103 14.7981 68.259 14.8341C68.415 14.8581 68.493 14.8701 68.493 14.8701V17.1921C68.493 17.1921 68.403 17.1801 68.223 17.1561C68.055 17.1321 67.845 17.1201 67.593 17.1201C66.753 17.1201 66.117 17.3541 65.685 17.8221C65.253 18.2901 65.037 19.0461 65.037 20.0901V24.5001H62.643ZM74.373 24.6801C73.329 24.6801 72.441 24.4461 71.709 23.9781C70.977 23.5101 70.419 22.9041 70.035 22.1601C69.663 21.4041 69.477 20.5941 69.477 19.7301C69.477 18.8661 69.663 18.0621 70.035 17.3181C70.419 16.5621 70.977 15.9501 71.709 15.4821C72.441 15.0141 73.329 14.7801 74.373 14.7801C75.429 14.7801 76.317 15.0141 77.037 15.4821C77.769 15.9501 78.321 16.5621 78.693 17.3181C79.077 18.0621 79.269 18.8661 79.269 19.7301C79.269 20.5941 79.077 21.4041 78.693 22.1601C78.321 22.9041 77.769 23.5101 77.037 23.9781C76.317 24.4461 75.429 24.6801 74.373 24.6801ZM74.373 22.6821C74.913 22.6821 75.363 22.5441 75.723 22.2681C76.095 21.9921 76.377 21.6321 76.569 21.1881C76.761 20.7321 76.857 20.2461 76.857 19.7301C76.857 19.2021 76.761 18.7161 76.569 18.2721C76.377 17.8281 76.095 17.4681 75.723 17.1921C75.363 16.9161 74.913 16.7781 74.373 16.7781C73.845 16.7781 73.395 16.9161 73.023 17.1921C72.651 17.4681 72.369 17.8281 72.177 18.2721C71.985 18.7161 71.889 19.2021 71.889 19.7301C71.889 20.2461 71.985 20.7321 72.177 21.1881C72.369 21.6321 72.651 21.9921 73.023 22.2681C73.395 22.5441 73.845 22.6821 74.373 22.6821ZM84.387 24.6801C83.391 24.6801 82.635 24.3741 82.119 23.7621C81.615 23.1501 81.363 22.3641 81.363 21.4041V14.9601H83.739V21.0081C83.739 21.5241 83.877 21.9381 84.153 22.2501C84.429 22.5501 84.819 22.7001 85.323 22.7001C85.767 22.7001 86.127 22.5861 86.403 22.3581C86.679 22.1301 86.877 21.8361 86.997 21.4761C87.129 21.1161 87.195 20.7441 87.195 20.3601V14.9601H89.589V24.5001H87.195V23.1321H87.087C86.967 23.3481 86.793 23.5761 86.565 23.8161C86.349 24.0561 86.061 24.2601 85.701 24.4281C85.353 24.5961 84.915 24.6801 84.387 24.6801ZM91.822 24.5001V14.9601H94.216V16.3281H94.324C94.42 16.1601 94.57 15.9561 94.774 15.7161C94.978 15.4641 95.26 15.2481 95.62 15.0681C95.98 14.8761 96.436 14.7801 96.988 14.7801C97.72 14.7801 98.32 14.9481 98.788 15.2841C99.268 15.6081 99.622 16.0401 99.85 16.5801C100.09 17.1201 100.21 17.7021 100.21 18.3261V24.5001H97.816V18.6501C97.816 18.1341 97.672 17.6901 97.384 17.3181C97.096 16.9461 96.664 16.7601 96.088 16.7601C95.644 16.7601 95.284 16.8741 95.008 17.1021C94.732 17.3181 94.528 17.6001 94.396 17.9481C94.276 18.2961 94.216 18.6621 94.216 19.0461V24.5001H91.822ZM106.455 24.6801C105.747 24.6801 105.129 24.5421 104.601 24.2661C104.073 23.9781 103.629 23.6001 103.269 23.1321C102.921 22.6521 102.657 22.1181 102.477 21.5301C102.309 20.9421 102.225 20.3421 102.225 19.7301C102.225 19.1181 102.309 18.5181 102.477 17.9301C102.657 17.3421 102.921 16.8141 103.269 16.3461C103.629 15.8661 104.073 15.4881 104.601 15.2121C105.129 14.9241 105.747 14.7801 106.455 14.7801C107.067 14.7801 107.571 14.8821 107.967 15.0861C108.363 15.2781 108.675 15.4941 108.903 15.7341C109.131 15.9621 109.287 16.1481 109.371 16.2921H109.479V10.8201H111.873V24.5001H109.479V23.1681H109.371C109.287 23.3121 109.131 23.5041 108.903 23.7441C108.675 23.9841 108.363 24.2001 107.967 24.3921C107.571 24.5841 107.067 24.6801 106.455 24.6801ZM107.085 22.7181C107.625 22.7181 108.075 22.5741 108.435 22.2861C108.795 21.9861 109.065 21.6081 109.245 21.1521C109.425 20.6961 109.515 20.2221 109.515 19.7301C109.515 19.2381 109.425 18.7641 109.245 18.3081C109.065 17.8521 108.795 17.4801 108.435 17.1921C108.075 16.8921 107.625 16.7421 107.085 16.7421C106.545 16.7421 106.089 16.8921 105.717 17.1921C105.357 17.4801 105.087 17.8521 104.907 18.3081C104.727 18.7641 104.637 19.2381 104.637 19.7301C104.637 20.2221 104.727 20.6961 104.907 21.1521C105.087 21.6081 105.357 21.9861 105.717 22.2861C106.089 22.5741 106.545 22.7181 107.085 22.7181ZM114.467 24.5001V11.1801H119.255C120.335 11.1801 121.277 11.3721 122.081 11.7561C122.897 12.1281 123.575 12.6321 124.115 13.2681C124.655 13.9041 125.057 14.6181 125.321 15.4101C125.597 16.2021 125.735 17.0121 125.735 17.8401C125.735 18.6681 125.597 19.4781 125.321 20.2701C125.057 21.0621 124.655 21.7761 124.115 22.4121C123.575 23.0481 122.897 23.5581 122.081 23.9421C121.277 24.3141 120.335 24.5001 119.255 24.5001H114.467ZM119.147 13.3221H116.915V22.3401H119.147C120.083 22.3401 120.857 22.1241 121.469 21.6921C122.081 21.2481 122.537 20.6841 122.837 20.0001C123.137 19.3041 123.287 18.5781 123.287 17.8221C123.287 17.0781 123.137 16.3641 122.837 15.6801C122.537 14.9841 122.081 14.4201 121.469 13.9881C120.857 13.5441 120.083 13.3221 119.147 13.3221ZM132.272 24.6801C131.456 24.6801 130.748 24.5421 130.148 24.2661C129.56 23.9781 129.068 23.6001 128.672 23.1321C128.288 22.6521 128 22.1181 127.808 21.5301C127.616 20.9421 127.52 20.3421 127.52 19.7301C127.52 19.1181 127.61 18.5241 127.79 17.9481C127.982 17.3601 128.264 16.8261 128.636 16.3461C129.02 15.8661 129.506 15.4881 130.094 15.2121C130.682 14.9241 131.378 14.7801 132.182 14.7801C133.046 14.7801 133.808 14.9721 134.468 15.3561C135.128 15.7401 135.644 16.3041 136.016 17.0481C136.388 17.7801 136.574 18.6921 136.574 19.7841V20.3961H129.932C129.968 21.0441 130.19 21.6081 130.598 22.0881C131.006 22.5561 131.564 22.7901 132.272 22.7901C132.68 22.7901 133.016 22.7241 133.28 22.5921C133.544 22.4601 133.748 22.3101 133.892 22.1421C134.036 21.9621 134.138 21.8121 134.198 21.6921C134.258 21.5601 134.288 21.4941 134.288 21.4941H136.502C136.502 21.4941 136.472 21.6021 136.412 21.8181C136.352 22.0221 136.238 22.2861 136.07 22.6101C135.914 22.9221 135.68 23.2401 135.368 23.5641C135.056 23.8761 134.648 24.1401 134.144 24.3561C133.64 24.5721 133.016 24.6801 132.272 24.6801ZM129.932 18.8301H134.27C134.234 18.0861 134.012 17.5341 133.604 17.1741C133.196 16.8141 132.716 16.6341 132.164 16.6341C131.552 16.6341 131.042 16.8321 130.634 17.2281C130.226 17.6121 129.992 18.1461 129.932 18.8301ZM142.52 24.6801C141.74 24.6801 141.098 24.5781 140.594 24.3741C140.09 24.1581 139.688 23.8941 139.388 23.5821C139.1 23.2581 138.884 22.9401 138.74 22.6281C138.596 22.3161 138.5 22.0581 138.452 21.8541C138.416 21.6381 138.398 21.5301 138.398 21.5301H140.666C140.666 21.5301 140.684 21.5961 140.72 21.7281C140.768 21.8601 140.852 22.0161 140.972 22.1961C141.104 22.3641 141.302 22.5141 141.566 22.6461C141.83 22.7781 142.178 22.8441 142.61 22.8441C143.126 22.8441 143.498 22.7361 143.726 22.5201C143.954 22.2921 144.068 22.0401 144.068 21.7641C144.068 21.5001 143.966 21.2901 143.762 21.1341C143.57 20.9661 143.282 20.8401 142.898 20.7561L141.584 20.4861C141.056 20.3781 140.564 20.2221 140.108 20.0181C139.652 19.8021 139.28 19.5141 138.992 19.1541C138.704 18.7821 138.56 18.3081 138.56 17.7321C138.56 16.8801 138.884 16.1781 139.532 15.6261C140.18 15.0621 141.062 14.7801 142.178 14.7801C142.886 14.7801 143.468 14.8761 143.924 15.0681C144.392 15.2601 144.764 15.5001 145.04 15.7881C145.328 16.0761 145.538 16.3641 145.67 16.6521C145.814 16.9401 145.904 17.1861 145.94 17.3901C145.988 17.5821 146.012 17.6781 146.012 17.6781H143.816C143.816 17.6781 143.798 17.6241 143.762 17.5161C143.726 17.3961 143.648 17.2641 143.528 17.1201C143.42 16.9761 143.252 16.8501 143.024 16.7421C142.808 16.6221 142.514 16.5621 142.142 16.5621C141.638 16.5621 141.278 16.6701 141.062 16.8861C140.858 17.1021 140.756 17.3301 140.756 17.5701C140.756 17.8341 140.87 18.0381 141.098 18.1821C141.326 18.3261 141.62 18.4341 141.98 18.5061L143.222 18.7761C144.11 18.9561 144.836 19.2681 145.4 19.7121C145.976 20.1561 146.264 20.7981 146.264 21.6381C146.264 22.2021 146.114 22.7181 145.814 23.1861C145.526 23.6421 145.1 24.0081 144.536 24.2841C143.984 24.5481 143.312 24.6801 142.52 24.6801ZM148.27 24.5001V10.8201H150.664V18.7401L154.03 14.9601H156.856L152.896 19.3161L156.982 24.5001H154.12L150.664 20.1081V24.5001H148.27Z" fill="white"/>
<defs>
<linearGradient id="paint0_linear_1_614" x1="18.671" y1="3.44541e-05" x2="18.671" y2="36" gradientUnits="userSpaceOnUse">
<stop stop-color="white"/>
<stop offset="1" stop-color="#F8F8F8"/>
</linearGradient>
</defs>
</svg>
